inDegrees=no
num_controls=7
num_derivatives=13
num_iterations=165
num_multipliers=7
num_parameters=0
num_slacks=7
num_states=26
objective=5.790086
objective_accelerations=0.678831
objective_balance=0.019459
objective_effort=0.486125
objective_height=4.535118
objective_ligament=0.070553
solver_duration=1464.233862
status=Solve_Succeeded
success=true
DataType=double
version=3
OpenSimVersion=4.4-2022-07-23-0e9fedc
endheader
time	/jointset/ground_pelvis/pelvis_tilt/value	/jointset/ground_pelvis/pelvis_tx/value	/jointset/ground_pelvis/pelvis_ty/value	/jointset/hip_r/hip_flexion_r/value	/jointset/hip_r/hip_adduction_r/value	/jointset/hip_r/hip_rotation_r/value	/jointset/back/lumbar_extension/value	/jointset/patellofemoral_r/patellar_flexion_r/value	/jointset/knee_r/knee_flexion_r/value	/jointset/knee_r/knee_adduction_r/value	/jointset/knee_r/knee_rotation_r/value	/jointset/ankle_r/ankle_angle_r/value	/jointset/subtalar_r/subtalar_angle_r/value	/jointset/ground_pelvis/pelvis_tilt/speed	/jointset/ground_pelvis/pelvis_tx/speed	/jointset/ground_pelvis/pelvis_ty/speed	/jointset/hip_r/hip_flexion_r/speed	/jointset/hip_r/hip_adduction_r/speed	/jointset/hip_r/hip_rotation_r/speed	/jointset/back/lumbar_extension/speed	/jointset/patellofemoral_r/patellar_flexion_r/speed	/jointset/knee_r/knee_flexion_r/speed	/jointset/knee_r/knee_adduction_r/speed	/jointset/knee_r/knee_rotation_r/speed	/jointset/ankle_r/ankle_angle_r/speed	/jointset/subtalar_r/subtalar_angle_r/speed	/forceset/tau_hip_flexion_r	/forceset/tau_hip_adduction_r	/forceset/tau_hip_rotation_r	/forceset/tau_knee_flexion_r	/forceset/tau_ankle_angle_r	/forceset/tau_subtalar_angle_r	/forceset/tau_lumbar_extension	lambda_cid13_p0	lambda_cid14_p0	lambda_cid14_p1	lambda_cid14_p2	lambda_cid14_p3	lambda_cid14_p4	lambda_cid14_p5	/jointset/ground_pelvis/pelvis_tilt/accel	/jointset/ground_pelvis/pelvis_tx/accel	/jointset/ground_pelvis/pelvis_ty/accel	/jointset/hip_r/hip_flexion_r/accel	/jointset/hip_r/hip_adduction_r/accel	/jointset/hip_r/hip_rotation_r/accel	/jointset/back/lumbar_extension/accel	/jointset/patellofemoral_r/patellar_flexion_r/accel	/jointset/knee_r/knee_flexion_r/accel	/jointset/knee_r/knee_adduction_r/accel	/jointset/knee_r/knee_rotation_r/accel	/jointset/ankle_r/ankle_angle_r/accel	/jointset/subtalar_r/subtalar_angle_r/accel	gamma_cid13_p0	gamma_cid14_p0	gamma_cid14_p1	gamma_cid14_p2	gamma_cid14_p3	gamma_cid14_p4	gamma_cid14_p5
0.5	-0.159580828341323	0.01790901866643365	0.7942343753030964	0.9509112219699799	-0.2203375264765917	-0.1278074980748657	-0.6542106674642965	0.9946292760049278	0.9946292760049013	-0.07006625801007149	0.1745316208228638	0.2993836344835695	0.1445933918463948	-0.4202634977398338	-0.2128491525680472	-0.5525689081857135	2.024632240450929	-0.03837298679084868	0.2079857463902235	-0.7332846357037197	2.035176713498926	2.035176713499097	-0.4210743562436738	-8.079698874287698e-05	0.5326047314362589	0.1555953106787651	-0.2117734699761329	0.003951669292954074	0.01633035603216127	-0.2909168958588851	0.001689175906606306	0.006595064541357156	0.249860790199982	-6.620325561766328	-41.43769018731022	-3.250729709922969	-0.362505865281265	-4.578609804266031	-640.7323386326366	66.67656246124254	0.4385376995219677	0.6612607112363306	-0.4443393482809334	-1.401957571119963	-0.1927096158470012	-0.4831845478587763	1.978936193012039	-1.454609660198121	-1.454609660198128	0.5365850188151494	-0.03112146138120308	-0.6630955570520438	-0.4128397930810713	-1.068308913467611e-07	2.486550911858805e-08	1.662725662710195e-06	-1.650068215670434e-07	-1.834768204574308e-07	-2.021854293107827e-07	1.144802956763011e-06
0.51	-0.1637606433259481	0.01581379235839453	0.7886877943047881	0.9710842556582705	-0.2207313572025791	-0.1257532843616229	-0.6614440627133239	1.014905089376813	1.014905089376772	-0.07424981013923058	0.1745312972563409	0.3046754152273759	0.1461273936059089	-0.4156333153143421	-0.2061767962906932	-0.5566187798923992	2.009696407117727	-0.04039212727828916	0.2029307817481781	-0.7133137988555303	2.019710900956367	2.019710900956517	-0.4155239773053405	1.754282189969966e-06	0.5256669742394381	0.1511523033498162	-0.21858140500137	0.003782607386063357	0.0166625664789496	-0.2965492215563459	0.001028295152134059	0.007419353189346255	0.2561979742407476	-5.73251621418907	-41.96033582837099	-3.085498796643161	-0.2732015585499117	-4.656284942190188	-646.3530505115619	67.74966555231531	0.4852024734155191	0.6730671802221656	-0.3660666363451299	-1.581092689107885	-0.2061813296586744	-0.5056947643658242	2.018249717666272	-1.633811337372335	-1.633811337375612	0.5813473904521013	0.02595320395405121	-0.7218411188074746	-0.4675664151047848	-6.611003936832363e-08	1.179893102122402e-07	1.970376211455975e-06	5.614022986533697e-07	-2.643656771198488e-07	-1.516467405619096e-07	1.400905792847988e-06
0.52	-0.1678921676944472	0.01378585843197658	0.7831045634785165	0.9910995917182918	-0.2211453123463338	-0.1237474287631978	-0.6684753311364812	1.035017995766047	1.035017995766009	-0.07837444186718721	0.1745314011590573	0.309895273335652	0.1476154582496729	-0.410605374514745	-0.1993906762438157	-0.559898873778373	1.993092714797033	-0.0423978703443741	0.1983141234265958	-0.6928592705295915	2.002595316970304	2.002595316970432	-0.4092902760026191	4.696858060244592e-06	0.5182202043302013	0.1464078875287487	-0.2253893400266087	0.003613545479176123	0.0169947769258783	-0.3021815472537914	0.0003674143976619137	0.00824364183733692	0.2625351582815101	-4.911720036075517	-42.47835147230901	-2.909039106949924	-0.1975856852374209	-4.768870470164218	-651.9387660979737	68.8555766276102	0.5180893743430217	0.6840134651410158	-0.2903837841385468	-1.73552936861807	-0.1900301315758501	-0.3955232837661073	2.075674488561859	-1.784563948899159	-1.784563948899156	0.6732494916927342	-0.04704320039381352	-0.7648980995352326	-0.4731214915047557	-5.115847076732708e-08	1.323349573582524e-07	1.893111272140027e-06	6.612802565540873e-07	-2.649218640343802e-07	-1.318198282214864e-07	1.387827567782072e-06
0.53	-0.1719714840836385	0.01182621465729066	0.7774923634722228	1.010940906096673	-0.2215790235694624	-0.1217861552601634	-0.6752998364205163	1.054951722533835	1.054951722533833	-0.08243430731294561	0.1745312142560131	0.3150382309684015	0.1490549603446588	-0.4051928245715063	-0.1925321189749488	-0.5624132003411395	1.974915938131373	-0.04433036673810889	0.1939585462019741	-0.6719858056098665	1.9838920212064	1.983892021206434	-0.4026390726798353	-3.432883885795157e-05	0.5102930032482914	0.1414619924174481	-0.232142027674731	0.004420666942954865	0.01719280286633148	-0.307505264367176	-0.0006939700892818567	0.008482453354101818	0.2686981857920562	-4.157936746260642	-43.17699404753351	-3.070781227979693	-0.008310592805095818	-4.59202059949423	-657.4278751424548	69.19110883929237	0.5626194300595271	0.6876177726838586	-0.2127923025975131	-1.896864068890629	-0.1925667603195584	-0.452952284864556	2.101579593816494	-1.951906036202229	-1.951906036216217	0.6678566233933368	0.01902981052851098	-0.8184295923074496	-0.5095297807335193	-3.938288512576735e-08	1.431393541479774e-07	1.820006944423579e-06	7.197153471072715e-07	-2.649473926908275e-07	-1.160854528346891e-07	1.377886284316348e-06
0.54	-0.175994718648248	0.009935324638278455	0.771858853158251	1.030592830257726	-0.222031601229937	-0.1198679129979894	-0.6819139276353267	1.074690677614767	1.074690677614809	-0.08642630055131149	0.1745309095089758	0.3200995568943744	0.1504441622365737	-0.3993890095984627	-0.1856399251090727	-0.5641609353139656	1.95521467133169	-0.04617115781373009	0.1897078752551769	-0.6507764566845997	1.963640979599849	1.96364097959979	-0.3957158345241648	-1.887194100346973e-05	0.5018938629748378	0.136347846914515	-0.2388947153228601	0.00522778840672251	0.01739082880683735	-0.312828981480554	-0.001755354576228209	0.008721264870847305	0.2748612133025959	-3.47088412068445	-43.87324276488804	-3.225460429094376	0.1722511337610412	-4.444866935869699	-662.8991825508022	69.54628045570358	0.5963423803040198	0.6907407845428367	-0.1370654661504422	-2.0404273954227	-0.1716890679530999	-0.374542028201187	2.142851289670234	-2.094113117428356	-2.094113117428441	0.7276564582700553	-0.03614668143934731	-0.8592859378439476	-0.5067715698312236	-3.112115297124414e-08	1.500257718201079e-07	1.751505846561898e-06	7.322987546376521e-07	-2.643858100830117e-07	-1.048789906731799e-07	1.371415659642327e-06
